<?xml version="1.0" encoding="utf-8" standalone="no"?>
<!DOCTYPE svg PUBLIC "-//W3C//DTD SVG 1.1//EN"
  "http://www.w3.org/Graphics/SVG/1.1/DTD/svg11.dtd">
<svg xmlns:xlink="http://www.w3.org/1999/xlink" width="1084.32pt" height="430.56pt" viewBox="0 0 1084.32 430.56" xmlns="http://www.w3.org/2000/svg" version="1.1">
 <metadata>
  <rdf:RDF xmlns:dc="http://purl.org/dc/elements/1.1/" xmlns:cc="http://creativecommons.org/ns#" xmlns:rdf="http://www.w3.org/1999/02/22-rdf-syntax-ns#">
   <cc:Work>
    <dc:type rdf:resource="http://purl.org/dc/dcmitype/StillImage"/>
    <dc:date>2026-03-26T22:04:52.699801</dc:date>
    <dc:format>image/svg+xml</dc:format>
    <dc:creator>
     <cc:Agent>
      <dc:title>Matplotlib v3.10.8, https://matplotlib.org/</dc:title>
     </cc:Agent>
    </dc:creator>
   </cc:Work>
  </rdf:RDF>
 </metadata>
 <defs>
  <style type="text/css">*{stroke-linejoin: round; stroke-linecap: butt}</style>
 </defs>
 <g id="figure_1">
  <g id="patch_1">
   <path d="M 0 430.56 
L 1084.32 430.56 
L 1084.32 0 
L 0 0 
z
" style="fill: #ffffff"/>
  </g>
  <g id="axes_1">
   <g id="patch_2">
    <path d="M 451.991551 236.292604 
L 441.543295 250.920162 
L 431.09504 236.292604 
L 451.991551 236.292604 
z
" clip-path="url(#pd20c009b49)" style="fill: none; stroke: #000000; stroke-width: 2; stroke-linecap: round"/>
   </g>
   <g id="patch_3">
    <path d="M 326.61248 236.292604 
L 316.164224 250.920162 
L 305.715968 236.292604 
L 326.61248 236.292604 
z
" clip-path="url(#pd20c009b49)" style="fill: none; stroke: #000000; stroke-width: 2; stroke-linecap: round"/>
   </g>
   <g id="patch_4">
    <path d="M 201.233409 236.292604 
L 190.785153 250.920162 
L 180.336897 236.292604 
L 201.233409 236.292604 
z
" clip-path="url(#pd20c009b49)" style="fill: none; stroke: #000000; stroke-width: 2; stroke-linecap: round"/>
   </g>
   <g id="patch_5">
    <path d="M 75.854338 236.292604 
L 65.406082 250.920162 
L 54.957826 236.292604 
L 75.854338 236.292604 
z
" clip-path="url(#pd20c009b49)" style="fill: none; stroke: #000000; stroke-width: 2; stroke-linecap: round"/>
   </g>
   <g id="patch_6">
    <path d="M 577.370622 236.292604 
L 566.922367 250.920162 
L 556.474111 236.292604 
L 577.370622 236.292604 
z
" clip-path="url(#pd20c009b49)" style="fill: none; stroke: #000000; stroke-width: 2; stroke-linecap: round"/>
   </g>
   <g id="patch_7">
    <path d="M 702.749694 236.292604 
L 692.301438 250.920162 
L 681.853182 236.292604 
L 702.749694 236.292604 
z
" clip-path="url(#pd20c009b49)" style="fill: none; stroke: #000000; stroke-width: 2; stroke-linecap: round"/>
   </g>
   <g id="patch_8">
    <path d="M 828.128765 236.292604 
L 817.680509 250.920162 
L 807.232253 236.292604 
L 828.128765 236.292604 
z
" clip-path="url(#pd20c009b49)" style="fill: none; stroke: #000000; stroke-width: 2; stroke-linecap: round"/>
   </g>
   <g id="patch_9">
    <path d="M 953.507836 236.292604 
L 943.05958 250.920162 
L 932.611324 236.292604 
L 953.507836 236.292604 
z
" clip-path="url(#pd20c009b49)" style="fill: none; stroke: #000000; stroke-width: 2; stroke-linecap: round"/>
   </g>
   <g id="line2d_1">
    <path d="M 504.232831 55.537776 
L 504.232831 38.820567 
" clip-path="url(#pd20c009b49)" style="fill: none; stroke: #000000; stroke-width: 2; stroke-linecap: round"/>
   </g>
   <g id="line2d_2">
    <path d="M 504.232831 38.820567 
L 496.396639 38.820567 
" clip-path="url(#pd20c009b49)" style="fill: none; stroke: #000000; stroke-width: 2; stroke-linecap: round"/>
   </g>
   <g id="line2d_3">
    <path d="M 504.232831 38.820567 
L 512.069023 38.820567 
" clip-path="url(#pd20c009b49)" style="fill: none; stroke: #000000; stroke-width: 2; stroke-linecap: round"/>
   </g>
   <g id="line2d_4">
    <path d="M 504.232831 55.537776 
L 472.888063 55.537776 
L 441.543295 55.537776 
" clip-path="url(#pd20c009b49)" style="fill: none; stroke: #000000; stroke-width: 2; stroke-linecap: round"/>
   </g>
   <g id="line2d_5">
    <path d="M 441.543295 55.537776 
L 441.543295 97.3308 
L 451.991551 100.813552 
L 431.09504 107.779056 
L 451.991551 114.74456 
L 431.09504 121.710064 
L 451.991551 128.675568 
L 431.09504 135.641071 
L 441.543295 139.123823 
L 441.543295 180.916847 
" clip-path="url(#pd20c009b49)" style="fill: none; stroke: #000000; stroke-width: 2; stroke-linecap: round"/>
   </g>
   <g id="line2d_6">
    <path d="M 441.543295 180.916847 
L 441.543295 236.292604 
M 451.991551 250.920162 
L 431.09504 250.920162 
M 441.543295 250.920162 
L 441.543295 306.295918 
" clip-path="url(#pd20c009b49)" style="fill: none; stroke: #000000; stroke-width: 2; stroke-linecap: round"/>
   </g>
   <g id="line2d_7">
    <path d="M 457.215679 246.74086 
L 468.242826 253.042086 
" clip-path="url(#pd20c009b49)" style="fill: none; stroke: #000000; stroke-width: 2; stroke-linecap: round"/>
   </g>
   <g id="patch_10">
    <path d="M 469.901638 250.139166 
L 475.500127 257.189115 
L 466.584014 255.945007 
z
" clip-path="url(#pd20c009b49)"/>
   </g>
   <g id="line2d_8">
    <path d="M 457.215679 237.337429 
L 468.242826 243.638656 
" clip-path="url(#pd20c009b49)" style="fill: none; stroke: #000000; stroke-width: 2; stroke-linecap: round"/>
   </g>
   <g id="patch_11">
    <path d="M 469.901638 240.735735 
L 475.500127 247.785685 
L 466.584014 246.541576 
z
" clip-path="url(#pd20c009b49)"/>
   </g>
   <g id="line2d_9">
    <path d="M 441.543295 306.295918 
L 472.888063 306.295918 
L 504.232831 306.295918 
" clip-path="url(#pd20c009b49)" style="fill: none; stroke: #000000; stroke-width: 2; stroke-linecap: round"/>
   </g>
   <g id="line2d_10">
    <path d="M 441.543295 55.537776 
L 378.85376 55.537776 
L 316.164224 55.537776 
" clip-path="url(#pd20c009b49)" style="fill: none; stroke: #000000; stroke-width: 2; stroke-linecap: round"/>
   </g>
   <g id="line2d_11">
    <path d="M 316.164224 55.537776 
L 316.164224 97.3308 
L 326.61248 100.813552 
L 305.715968 107.779056 
L 326.61248 114.74456 
L 305.715968 121.710064 
L 326.61248 128.675568 
L 305.715968 135.641071 
L 316.164224 139.123823 
L 316.164224 180.916847 
" clip-path="url(#pd20c009b49)" style="fill: none; stroke: #000000; stroke-width: 2; stroke-linecap: round"/>
   </g>
   <g id="line2d_12">
    <path d="M 316.164224 180.916847 
L 316.164224 236.292604 
M 326.61248 250.920162 
L 305.715968 250.920162 
M 316.164224 250.920162 
L 316.164224 306.295918 
" clip-path="url(#pd20c009b49)" style="fill: none; stroke: #000000; stroke-width: 2; stroke-linecap: round"/>
   </g>
   <g id="line2d_13">
    <path d="M 331.836608 246.74086 
L 342.863755 253.042086 
" clip-path="url(#pd20c009b49)" style="fill: none; stroke: #000000; stroke-width: 2; stroke-linecap: round"/>
   </g>
   <g id="patch_12">
    <path d="M 344.522567 250.139166 
L 350.121056 257.189115 
L 341.204943 255.945007 
z
" clip-path="url(#pd20c009b49)"/>
   </g>
   <g id="line2d_14">
    <path d="M 331.836608 237.337429 
L 342.863755 243.638656 
" clip-path="url(#pd20c009b49)" style="fill: none; stroke: #000000; stroke-width: 2; stroke-linecap: round"/>
   </g>
   <g id="patch_13">
    <path d="M 344.522567 240.735735 
L 350.121056 247.785685 
L 341.204943 246.541576 
z
" clip-path="url(#pd20c009b49)"/>
   </g>
   <g id="line2d_15">
    <path d="M 316.164224 306.295918 
L 378.85376 306.295918 
L 441.543295 306.295918 
" clip-path="url(#pd20c009b49)" style="fill: none; stroke: #000000; stroke-width: 2; stroke-linecap: round"/>
   </g>
   <g id="line2d_16">
    <path d="M 316.164224 55.537776 
L 253.474689 55.537776 
L 190.785153 55.537776 
" clip-path="url(#pd20c009b49)" style="fill: none; stroke: #000000; stroke-width: 2; stroke-linecap: round"/>
   </g>
   <g id="line2d_17">
    <path d="M 190.785153 55.537776 
L 190.785153 97.3308 
L 201.233409 100.813552 
L 180.336897 107.779056 
L 201.233409 114.74456 
L 180.336897 121.710064 
L 201.233409 128.675568 
L 180.336897 135.641071 
L 190.785153 139.123823 
L 190.785153 180.916847 
" clip-path="url(#pd20c009b49)" style="fill: none; stroke: #000000; stroke-width: 2; stroke-linecap: round"/>
   </g>
   <g id="line2d_18">
    <path d="M 190.785153 180.916847 
L 190.785153 236.292604 
M 201.233409 250.920162 
L 180.336897 250.920162 
M 190.785153 250.920162 
L 190.785153 306.295918 
" clip-path="url(#pd20c009b49)" style="fill: none; stroke: #000000; stroke-width: 2; stroke-linecap: round"/>
   </g>
   <g id="line2d_19">
    <path d="M 206.457537 246.74086 
L 217.484684 253.042086 
" clip-path="url(#pd20c009b49)" style="fill: none; stroke: #000000; stroke-width: 2; stroke-linecap: round"/>
   </g>
   <g id="patch_14">
    <path d="M 219.143495 250.139166 
L 224.741985 257.189115 
L 215.825872 255.945007 
z
" clip-path="url(#pd20c009b49)"/>
   </g>
   <g id="line2d_20">
    <path d="M 206.457537 237.337429 
L 217.484684 243.638656 
" clip-path="url(#pd20c009b49)" style="fill: none; stroke: #000000; stroke-width: 2; stroke-linecap: round"/>
   </g>
   <g id="patch_15">
    <path d="M 219.143495 240.735735 
L 224.741985 247.785685 
L 215.825872 246.541576 
z
" clip-path="url(#pd20c009b49)"/>
   </g>
   <g id="line2d_21">
    <path d="M 190.785153 306.295918 
L 253.474689 306.295918 
L 316.164224 306.295918 
" clip-path="url(#pd20c009b49)" style="fill: none; stroke: #000000; stroke-width: 2; stroke-linecap: round"/>
   </g>
   <g id="line2d_22">
    <path d="M 190.785153 55.537776 
L 128.095618 55.537776 
L 65.406082 55.537776 
" clip-path="url(#pd20c009b49)" style="fill: none; stroke: #000000; stroke-width: 2; stroke-linecap: round"/>
   </g>
   <g id="line2d_23">
    <path d="M 65.406082 55.537776 
L 65.406082 97.3308 
L 75.854338 100.813552 
L 54.957826 107.779056 
L 75.854338 114.74456 
L 54.957826 121.710064 
L 75.854338 128.675568 
L 54.957826 135.641071 
L 65.406082 139.123823 
L 65.406082 180.916847 
" clip-path="url(#pd20c009b49)" style="fill: none; stroke: #000000; stroke-width: 2; stroke-linecap: round"/>
   </g>
   <g id="line2d_24">
    <path d="M 65.406082 180.916847 
L 65.406082 236.292604 
M 75.854338 250.920162 
L 54.957826 250.920162 
M 65.406082 250.920162 
L 65.406082 306.295918 
" clip-path="url(#pd20c009b49)" style="fill: none; stroke: #000000; stroke-width: 2; stroke-linecap: round"/>
   </g>
   <g id="line2d_25">
    <path d="M 81.078466 246.74086 
L 92.105613 253.042086 
" clip-path="url(#pd20c009b49)" style="fill: none; stroke: #000000; stroke-width: 2; stroke-linecap: round"/>
   </g>
   <g id="patch_16">
    <path d="M 93.764424 250.139166 
L 99.362914 257.189115 
L 90.446801 255.945007 
z
" clip-path="url(#pd20c009b49)"/>
   </g>
   <g id="line2d_26">
    <path d="M 81.078466 237.337429 
L 92.105613 243.638656 
" clip-path="url(#pd20c009b49)" style="fill: none; stroke: #000000; stroke-width: 2; stroke-linecap: round"/>
   </g>
   <g id="patch_17">
    <path d="M 93.764424 240.735735 
L 99.362914 247.785685 
L 90.446801 246.541576 
z
" clip-path="url(#pd20c009b49)"/>
   </g>
   <g id="line2d_27">
    <path d="M 65.406082 306.295918 
L 128.095618 306.295918 
L 190.785153 306.295918 
" clip-path="url(#pd20c009b49)" style="fill: none; stroke: #000000; stroke-width: 2; stroke-linecap: round"/>
   </g>
   <g id="line2d_28">
    <path d="M 504.232831 55.537776 
L 535.577599 55.537776 
L 566.922367 55.537776 
" clip-path="url(#pd20c009b49)" style="fill: none; stroke: #000000; stroke-width: 2; stroke-linecap: round"/>
   </g>
   <g id="line2d_29">
    <path d="M 566.922367 55.537776 
L 566.922367 97.3308 
L 577.370622 100.813552 
L 556.474111 107.779056 
L 577.370622 114.74456 
L 556.474111 121.710064 
L 577.370622 128.675568 
L 556.474111 135.641071 
L 566.922367 139.123823 
L 566.922367 180.916847 
" clip-path="url(#pd20c009b49)" style="fill: none; stroke: #000000; stroke-width: 2; stroke-linecap: round"/>
   </g>
   <g id="line2d_30">
    <path d="M 566.922367 180.916847 
L 566.922367 236.292604 
M 577.370622 250.920162 
L 556.474111 250.920162 
M 566.922367 250.920162 
L 566.922367 306.295918 
" clip-path="url(#pd20c009b49)" style="fill: none; stroke: #000000; stroke-width: 2; stroke-linecap: round"/>
   </g>
   <g id="line2d_31">
    <path d="M 582.59475 246.74086 
L 593.621897 253.042086 
" clip-path="url(#pd20c009b49)" style="fill: none; stroke: #000000; stroke-width: 2; stroke-linecap: round"/>
   </g>
   <g id="patch_18">
    <path d="M 595.280709 250.139166 
L 600.879198 257.189115 
L 591.963085 255.945007 
z
" clip-path="url(#pd20c009b49)"/>
   </g>
   <g id="line2d_32">
    <path d="M 582.59475 237.337429 
L 593.621897 243.638656 
" clip-path="url(#pd20c009b49)" style="fill: none; stroke: #000000; stroke-width: 2; stroke-linecap: round"/>
   </g>
   <g id="patch_19">
    <path d="M 595.280709 240.735735 
L 600.879198 247.785685 
L 591.963085 246.541576 
z
" clip-path="url(#pd20c009b49)"/>
   </g>
   <g id="line2d_33">
    <path d="M 566.922367 306.295918 
L 535.577599 306.295918 
L 504.232831 306.295918 
" clip-path="url(#pd20c009b49)" style="fill: none; stroke: #000000; stroke-width: 2; stroke-linecap: round"/>
   </g>
   <g id="line2d_34">
    <path d="M 566.922367 55.537776 
L 629.611902 55.537776 
L 692.301438 55.537776 
" clip-path="url(#pd20c009b49)" style="fill: none; stroke: #000000; stroke-width: 2; stroke-linecap: round"/>
   </g>
   <g id="line2d_35">
    <path d="M 692.301438 55.537776 
L 692.301438 97.3308 
L 702.749694 100.813552 
L 681.853182 107.779056 
L 702.749694 114.74456 
L 681.853182 121.710064 
L 702.749694 128.675568 
L 681.853182 135.641071 
L 692.301438 139.123823 
L 692.301438 180.916847 
" clip-path="url(#pd20c009b49)" style="fill: none; stroke: #000000; stroke-width: 2; stroke-linecap: round"/>
   </g>
   <g id="line2d_36">
    <path d="M 692.301438 180.916847 
L 692.301438 236.292604 
M 702.749694 250.920162 
L 681.853182 250.920162 
M 692.301438 250.920162 
L 692.301438 306.295918 
" clip-path="url(#pd20c009b49)" style="fill: none; stroke: #000000; stroke-width: 2; stroke-linecap: round"/>
   </g>
   <g id="line2d_37">
    <path d="M 707.973822 246.74086 
L 719.000968 253.042086 
" clip-path="url(#pd20c009b49)" style="fill: none; stroke: #000000; stroke-width: 2; stroke-linecap: round"/>
   </g>
   <g id="patch_20">
    <path d="M 720.65978 250.139166 
L 726.258269 257.189115 
L 717.342156 255.945007 
z
" clip-path="url(#pd20c009b49)"/>
   </g>
   <g id="line2d_38">
    <path d="M 707.973822 237.337429 
L 719.000968 243.638656 
" clip-path="url(#pd20c009b49)" style="fill: none; stroke: #000000; stroke-width: 2; stroke-linecap: round"/>
   </g>
   <g id="patch_21">
    <path d="M 720.65978 240.735735 
L 726.258269 247.785685 
L 717.342156 246.541576 
z
" clip-path="url(#pd20c009b49)"/>
   </g>
   <g id="line2d_39">
    <path d="M 692.301438 306.295918 
L 629.611902 306.295918 
L 566.922367 306.295918 
" clip-path="url(#pd20c009b49)" style="fill: none; stroke: #000000; stroke-width: 2; stroke-linecap: round"/>
   </g>
   <g id="line2d_40">
    <path d="M 692.301438 55.537776 
L 754.990973 55.537776 
L 817.680509 55.537776 
" clip-path="url(#pd20c009b49)" style="fill: none; stroke: #000000; stroke-width: 2; stroke-linecap: round"/>
   </g>
   <g id="line2d_41">
    <path d="M 817.680509 55.537776 
L 817.680509 97.3308 
L 828.128765 100.813552 
L 807.232253 107.779056 
L 828.128765 114.74456 
L 807.232253 121.710064 
L 828.128765 128.675568 
L 807.232253 135.641071 
L 817.680509 139.123823 
L 817.680509 180.916847 
" clip-path="url(#pd20c009b49)" style="fill: none; stroke: #000000; stroke-width: 2; stroke-linecap: round"/>
   </g>
   <g id="line2d_42">
    <path d="M 817.680509 180.916847 
L 817.680509 236.292604 
M 828.128765 250.920162 
L 807.232253 250.920162 
M 817.680509 250.920162 
L 817.680509 306.295918 
" clip-path="url(#pd20c009b49)" style="fill: none; stroke: #000000; stroke-width: 2; stroke-linecap: round"/>
   </g>
   <g id="line2d_43">
    <path d="M 833.352893 246.74086 
L 844.380039 253.042086 
" clip-path="url(#pd20c009b49)" style="fill: none; stroke: #000000; stroke-width: 2; stroke-linecap: round"/>
   </g>
   <g id="patch_22">
    <path d="M 846.038851 250.139166 
L 851.637341 257.189115 
L 842.721228 255.945007 
z
" clip-path="url(#pd20c009b49)"/>
   </g>
   <g id="line2d_44">
    <path d="M 833.352893 237.337429 
L 844.380039 243.638656 
" clip-path="url(#pd20c009b49)" style="fill: none; stroke: #000000; stroke-width: 2; stroke-linecap: round"/>
   </g>
   <g id="patch_23">
    <path d="M 846.038851 240.735735 
L 851.637341 247.785685 
L 842.721228 246.541576 
z
" clip-path="url(#pd20c009b49)"/>
   </g>
   <g id="line2d_45">
    <path d="M 817.680509 306.295918 
L 754.990973 306.295918 
L 692.301438 306.295918 
" clip-path="url(#pd20c009b49)" style="fill: none; stroke: #000000; stroke-width: 2; stroke-linecap: round"/>
   </g>
   <g id="line2d_46">
    <path d="M 817.680509 55.537776 
L 880.370044 55.537776 
L 943.05958 55.537776 
" clip-path="url(#pd20c009b49)" style="fill: none; stroke: #000000; stroke-width: 2; stroke-linecap: round"/>
   </g>
   <g id="line2d_47">
    <path d="M 943.05958 55.537776 
L 943.05958 97.3308 
L 953.507836 100.813552 
L 932.611324 107.779056 
L 953.507836 114.74456 
L 932.611324 121.710064 
L 953.507836 128.675568 
L 932.611324 135.641071 
L 943.05958 139.123823 
L 943.05958 180.916847 
" clip-path="url(#pd20c009b49)" style="fill: none; stroke: #000000; stroke-width: 2; stroke-linecap: round"/>
   </g>
   <g id="line2d_48">
    <path d="M 943.05958 180.916847 
L 943.05958 236.292604 
M 953.507836 250.920162 
L 932.611324 250.920162 
M 943.05958 250.920162 
L 943.05958 306.295918 
" clip-path="url(#pd20c009b49)" style="fill: none; stroke: #000000; stroke-width: 2; stroke-linecap: round"/>
   </g>
   <g id="line2d_49">
    <path d="M 958.731964 246.74086 
L 969.75911 253.042086 
" clip-path="url(#pd20c009b49)" style="fill: none; stroke: #000000; stroke-width: 2; stroke-linecap: round"/>
   </g>
   <g id="patch_24">
    <path d="M 971.417922 250.139166 
L 977.016412 257.189115 
L 968.100299 255.945007 
z
" clip-path="url(#pd20c009b49)"/>
   </g>
   <g id="line2d_50">
    <path d="M 958.731964 237.337429 
L 969.75911 243.638656 
" clip-path="url(#pd20c009b49)" style="fill: none; stroke: #000000; stroke-width: 2; stroke-linecap: round"/>
   </g>
   <g id="patch_25">
    <path d="M 971.417922 240.735735 
L 977.016412 247.785685 
L 968.100299 246.541576 
z
" clip-path="url(#pd20c009b49)"/>
   </g>
   <g id="line2d_51">
    <path d="M 943.05958 306.295918 
L 880.370044 306.295918 
L 817.680509 306.295918 
" clip-path="url(#pd20c009b49)" style="fill: none; stroke: #000000; stroke-width: 2; stroke-linecap: round"/>
   </g>
   <g id="line2d_52">
    <path d="M 943.05958 55.537776 
L 1005.749115 55.537776 
L 1068.438651 55.537776 
" clip-path="url(#pd20c009b49)" style="fill: none; stroke: #000000; stroke-width: 2; stroke-linecap: round"/>
   </g>
   <g id="line2d_53">
    <path d="M 1068.438651 55.537776 
L 1068.438651 86.882544 
L 1068.438651 118.227312 
" clip-path="url(#pd20c009b49)" style="fill: none; stroke: #000000; stroke-width: 2; stroke-linecap: round"/>
   </g>
   <g id="line2d_54">
    <path d="M 1068.438651 118.227312 
L 1068.438651 177.155475 
M 1078.886907 177.155475 
L 1057.990395 177.155475 
M 1078.886907 184.678219 
L 1057.990395 184.678219 
M 1068.438651 184.678219 
L 1068.438651 243.606383 
" clip-path="url(#pd20c009b49)" style="fill: none; stroke: #000000; stroke-width: 2; stroke-linecap: round"/>
   </g>
   <g id="line2d_55">
    <path d="M 1068.438651 243.606383 
L 1068.438651 274.951151 
L 1068.438651 306.295918 
" clip-path="url(#pd20c009b49)" style="fill: none; stroke: #000000; stroke-width: 2; stroke-linecap: round"/>
   </g>
   <g id="line2d_56">
    <path d="M 1068.438651 306.295918 
L 1005.749115 306.295918 
L 943.05958 306.295918 
" clip-path="url(#pd20c009b49)" style="fill: none; stroke: #000000; stroke-width: 2; stroke-linecap: round"/>
   </g>
   <g id="line2d_57">
    <path d="M 504.232831 306.295918 
L 504.232831 316.744174 
L 504.232831 327.19243 
" clip-path="url(#pd20c009b49)" style="fill: none; stroke: #000000; stroke-width: 2; stroke-linecap: round"/>
   </g>
   <g id="line2d_58">
    <path d="M 472.818408 356.308237 
L 488.142517 356.308237 
" clip-path="url(#pd20c009b49)" style="fill: none; stroke: #000000; stroke-width: 2; stroke-linecap: round"/>
   </g>
   <g id="line2d_59">
    <path d="M 488.142517 340.984128 
L 488.142517 371.632345 
" clip-path="url(#pd20c009b49)" style="fill: none; stroke: #000000; stroke-width: 2; stroke-linecap: round"/>
   </g>
   <g id="line2d_60">
    <path d="M 488.142517 348.646182 
L 504.232831 334.854484 
L 504.232831 327.19243 
" clip-path="url(#pd20c009b49)" style="fill: none; stroke: #000000; stroke-width: 2; stroke-linecap: round"/>
   </g>
   <g id="line2d_61">
    <path d="M 488.142517 363.970291 
L 504.232831 377.761989 
L 504.232831 385.424043 
" clip-path="url(#pd20c009b49)" style="fill: none; stroke: #000000; stroke-width: 2; stroke-linecap: round"/>
   </g>
   <g id="line2d_62">
    <path d="M 488.142517 363.970291 
L 496.299924 370.962354 
" clip-path="url(#pd20c009b49)" style="fill: none; stroke: #000000; stroke-width: 2; stroke-linecap: round"/>
   </g>
   <g id="patch_26">
    <path d="M 499.019778 367.789191 
L 504.232831 377.761989 
L 493.58007 374.135517 
z
" clip-path="url(#pd20c009b49)"/>
   </g>
   <g id="line2d_63">
    <path d="M 504.232831 385.424043 
L 504.232831 402.141253 
L 493.784575 402.141253 
L 514.681087 402.141253 
M 496.919052 407.156415 
L 511.54661 407.156415 
M 502.14318 412.171578 
L 506.322482 412.171578 
" clip-path="url(#pd20c009b49)" style="fill: none; stroke: #000000; stroke-width: 2; stroke-linecap: round"/>
   </g>
   <g id="line2d_64">
    <path d="M 472.818408 356.308237 
L 431.025384 356.308237 
L 427.542632 366.756493 
L 420.577129 345.859981 
L 413.611625 366.756493 
L 406.646121 345.859981 
L 399.680617 366.756493 
L 392.715113 345.859981 
L 389.232361 356.308237 
L 347.439337 356.308237 
" clip-path="url(#pd20c009b49)" style="fill: none; stroke: #000000; stroke-width: 2; stroke-linecap: round"/>
   </g>
   <g id="text_1">
    <!-- VCC (+5V) -->
    <g transform="translate(466.873612 31.729702) scale(0.14 -0.14)">
     <defs>
      <path id="DejaVuSans-56" d="M 1831 0 
L 50 4666 
L 709 4666 
L 2188 738 
L 3669 4666 
L 4325 4666 
L 2547 0 
L 1831 0 
z
" transform="scale(0.015625)"/>
      <path id="DejaVuSans-43" d="M 4122 4306 
L 4122 3641 
Q 3803 3938 3442 4084 
Q 3081 4231 2675 4231 
Q 1875 4231 1450 3742 
Q 1025 3253 1025 2328 
Q 1025 1406 1450 917 
Q 1875 428 2675 428 
Q 3081 428 3442 575 
Q 3803 722 4122 1019 
L 4122 359 
Q 3791 134 3420 21 
Q 3050 -91 2638 -91 
Q 1578 -91 968 557 
Q 359 1206 359 2328 
Q 359 3453 968 4101 
Q 1578 4750 2638 4750 
Q 3056 4750 3426 4639 
Q 3797 4528 4122 4306 
z
" transform="scale(0.015625)"/>
      <path id="DejaVuSans-20" transform="scale(0.015625)"/>
      <path id="DejaVuSans-28" d="M 1984 4856 
Q 1566 4138 1362 3434 
Q 1159 2731 1159 2009 
Q 1159 1288 1364 580 
Q 1569 -128 1984 -844 
L 1484 -844 
Q 1016 -109 783 600 
Q 550 1309 550 2009 
Q 550 2706 781 3412 
Q 1013 4119 1484 4856 
L 1984 4856 
z
" transform="scale(0.015625)"/>
      <path id="DejaVuSans-2b" d="M 2944 4013 
L 2944 2272 
L 4684 2272 
L 4684 1741 
L 2944 1741 
L 2944 0 
L 2419 0 
L 2419 1741 
L 678 1741 
L 678 2272 
L 2419 2272 
L 2419 4013 
L 2944 4013 
z
" transform="scale(0.015625)"/>
      <path id="DejaVuSans-35" d="M 691 4666 
L 3169 4666 
L 3169 4134 
L 1269 4134 
L 1269 2991 
Q 1406 3038 1543 3061 
Q 1681 3084 1819 3084 
Q 2600 3084 3056 2656 
Q 3513 2228 3513 1497 
Q 3513 744 3044 326 
Q 2575 -91 1722 -91 
Q 1428 -91 1123 -41 
Q 819 9 494 109 
L 494 744 
Q 775 591 1075 516 
Q 1375 441 1709 441 
Q 2250 441 2565 725 
Q 2881 1009 2881 1497 
Q 2881 1984 2565 2268 
Q 2250 2553 1709 2553 
Q 1456 2553 1204 2497 
Q 953 2441 691 2322 
L 691 4666 
z
" transform="scale(0.015625)"/>
      <path id="DejaVuSans-29" d="M 513 4856 
L 1013 4856 
Q 1481 4119 1714 3412 
Q 1947 2706 1947 2009 
Q 1947 1309 1714 600 
Q 1481 -109 1013 -844 
L 513 -844 
Q 928 -128 1133 580 
Q 1338 1288 1338 2009 
Q 1338 2731 1133 3434 
Q 928 4138 513 4856 
z
" transform="scale(0.015625)"/>
     </defs>
     <use xlink:href="#DejaVuSans-56"/>
     <use xlink:href="#DejaVuSans-43" transform="translate(68.408203 0)"/>
     <use xlink:href="#DejaVuSans-43" transform="translate(138.232422 0)"/>
     <use xlink:href="#DejaVuSans-20" transform="translate(208.056641 0)"/>
     <use xlink:href="#DejaVuSans-28" transform="translate(239.84375 0)"/>
     <use xlink:href="#DejaVuSans-2b" transform="translate(278.857422 0)"/>
     <use xlink:href="#DejaVuSans-35" transform="translate(362.646484 0)"/>
     <use xlink:href="#DejaVuSans-56" transform="translate(426.269531 0)"/>
     <use xlink:href="#DejaVuSans-29" transform="translate(494.677734 0)"/>
    </g>
   </g>
   <g id="text_2">
    <!-- 1.1kΩ -->
    <g transform="translate(385.845425 122.090437) scale(0.14 -0.14)">
     <defs>
      <path id="DejaVuSans-31" d="M 794 531 
L 1825 531 
L 1825 4091 
L 703 3866 
L 703 4441 
L 1819 4666 
L 2450 4666 
L 2450 531 
L 3481 531 
L 3481 0 
L 794 0 
L 794 531 
z
" transform="scale(0.015625)"/>
      <path id="DejaVuSans-2e" d="M 684 794 
L 1344 794 
L 1344 0 
L 684 0 
L 684 794 
z
" transform="scale(0.015625)"/>
      <path id="DejaVuSans-6b" d="M 581 4863 
L 1159 4863 
L 1159 1991 
L 2875 3500 
L 3609 3500 
L 1753 1863 
L 3688 0 
L 2938 0 
L 1159 1709 
L 1159 0 
L 581 0 
L 581 4863 
z
" transform="scale(0.015625)"/>
      <path id="DejaVuSans-3a9" d="M 4647 556 
L 4647 0 
L 2772 0 
L 2772 556 
Q 3325 859 3634 1378 
Q 3944 1897 3944 2528 
Q 3944 3278 3531 3731 
Q 3119 4184 2444 4184 
Q 1769 4184 1355 3729 
Q 941 3275 941 2528 
Q 941 1897 1250 1378 
Q 1563 859 2119 556 
L 2119 0 
L 244 0 
L 244 556 
L 1241 556 
Q 747 991 519 1456 
Q 294 1922 294 2497 
Q 294 3491 894 4106 
Q 1491 4722 2444 4722 
Q 3391 4722 3994 4106 
Q 4594 3494 4594 2528 
Q 4594 1922 4372 1459 
Q 4150 997 3647 556 
L 4647 556 
z
" transform="scale(0.015625)"/>
     </defs>
     <use xlink:href="#DejaVuSans-31"/>
     <use xlink:href="#DejaVuSans-2e" transform="translate(63.623047 0)"/>
     <use xlink:href="#DejaVuSans-31" transform="translate(95.410156 0)"/>
     <use xlink:href="#DejaVuSans-6b" transform="translate(159.033203 0)"/>
     <use xlink:href="#DejaVuSans-3a9" transform="translate(216.943359 0)"/>
    </g>
   </g>
   <g id="text_3">
    <!-- LED 3 -->
    <g transform="translate(486.366313 247.469508) scale(0.14 -0.14)">
     <defs>
      <path id="DejaVuSans-4c" d="M 628 4666 
L 1259 4666 
L 1259 531 
L 3531 531 
L 3531 0 
L 628 0 
L 628 4666 
z
" transform="scale(0.015625)"/>
      <path id="DejaVuSans-45" d="M 628 4666 
L 3578 4666 
L 3578 4134 
L 1259 4134 
L 1259 2753 
L 3481 2753 
L 3481 2222 
L 1259 2222 
L 1259 531 
L 3634 531 
L 3634 0 
L 628 0 
L 628 4666 
z
" transform="scale(0.015625)"/>
      <path id="DejaVuSans-44" d="M 1259 4147 
L 1259 519 
L 2022 519 
Q 2988 519 3436 956 
Q 3884 1394 3884 2338 
Q 3884 3275 3436 3711 
Q 2988 4147 2022 4147 
L 1259 4147 
z
M 628 4666 
L 1925 4666 
Q 3281 4666 3915 4102 
Q 4550 3538 4550 2338 
Q 4550 1131 3912 565 
Q 3275 0 1925 0 
L 628 0 
L 628 4666 
z
" transform="scale(0.015625)"/>
      <path id="DejaVuSans-33" d="M 2597 2516 
Q 3050 2419 3304 2112 
Q 3559 1806 3559 1356 
Q 3559 666 3084 287 
Q 2609 -91 1734 -91 
Q 1441 -91 1130 -33 
Q 819 25 488 141 
L 488 750 
Q 750 597 1062 519 
Q 1375 441 1716 441 
Q 2309 441 2620 675 
Q 2931 909 2931 1356 
Q 2931 1769 2642 2001 
Q 2353 2234 1838 2234 
L 1294 2234 
L 1294 2753 
L 1863 2753 
Q 2328 2753 2575 2939 
Q 2822 3125 2822 3475 
Q 2822 3834 2567 4026 
Q 2313 4219 1838 4219 
Q 1578 4219 1281 4162 
Q 984 4106 628 3988 
L 628 4550 
Q 988 4650 1302 4700 
Q 1616 4750 1894 4750 
Q 2613 4750 3031 4423 
Q 3450 4097 3450 3541 
Q 3450 3153 3228 2886 
Q 3006 2619 2597 2516 
z
" transform="scale(0.015625)"/>
     </defs>
     <use xlink:href="#DejaVuSans-4c"/>
     <use xlink:href="#DejaVuSans-45" transform="translate(55.712891 0)"/>
     <use xlink:href="#DejaVuSans-44" transform="translate(118.896484 0)"/>
     <use xlink:href="#DejaVuSans-20" transform="translate(195.898438 0)"/>
     <use xlink:href="#DejaVuSans-33" transform="translate(227.685547 0)"/>
    </g>
   </g>
   <g id="text_4">
    <!-- 1.1kΩ -->
    <g transform="translate(260.466354 122.090437) scale(0.14 -0.14)">
     <use xlink:href="#DejaVuSans-31"/>
     <use xlink:href="#DejaVuSans-2e" transform="translate(63.623047 0)"/>
     <use xlink:href="#DejaVuSans-31" transform="translate(95.410156 0)"/>
     <use xlink:href="#DejaVuSans-6b" transform="translate(159.033203 0)"/>
     <use xlink:href="#DejaVuSans-3a9" transform="translate(216.943359 0)"/>
    </g>
   </g>
   <g id="text_5">
    <!-- LED 2 -->
    <g transform="translate(360.987242 247.469508) scale(0.14 -0.14)">
     <defs>
      <path id="DejaVuSans-32" d="M 1228 531 
L 3431 531 
L 3431 0 
L 469 0 
L 469 531 
Q 828 903 1448 1529 
Q 2069 2156 2228 2338 
Q 2531 2678 2651 2914 
Q 2772 3150 2772 3378 
Q 2772 3750 2511 3984 
Q 2250 4219 1831 4219 
Q 1534 4219 1204 4116 
Q 875 4013 500 3803 
L 500 4441 
Q 881 4594 1212 4672 
Q 1544 4750 1819 4750 
Q 2544 4750 2975 4387 
Q 3406 4025 3406 3419 
Q 3406 3131 3298 2873 
Q 3191 2616 2906 2266 
Q 2828 2175 2409 1742 
Q 1991 1309 1228 531 
z
" transform="scale(0.015625)"/>
     </defs>
     <use xlink:href="#DejaVuSans-4c"/>
     <use xlink:href="#DejaVuSans-45" transform="translate(55.712891 0)"/>
     <use xlink:href="#DejaVuSans-44" transform="translate(118.896484 0)"/>
     <use xlink:href="#DejaVuSans-20" transform="translate(195.898438 0)"/>
     <use xlink:href="#DejaVuSans-32" transform="translate(227.685547 0)"/>
    </g>
   </g>
   <g id="text_6">
    <!-- 5.1kΩ -->
    <g transform="translate(135.087282 122.090437) scale(0.14 -0.14)">
     <use xlink:href="#DejaVuSans-35"/>
     <use xlink:href="#DejaVuSans-2e" transform="translate(63.623047 0)"/>
     <use xlink:href="#DejaVuSans-31" transform="translate(95.410156 0)"/>
     <use xlink:href="#DejaVuSans-6b" transform="translate(159.033203 0)"/>
     <use xlink:href="#DejaVuSans-3a9" transform="translate(216.943359 0)"/>
    </g>
   </g>
   <g id="text_7">
    <!-- LED 1 -->
    <g transform="translate(235.608171 247.469508) scale(0.14 -0.14)">
     <use xlink:href="#DejaVuSans-4c"/>
     <use xlink:href="#DejaVuSans-45" transform="translate(55.712891 0)"/>
     <use xlink:href="#DejaVuSans-44" transform="translate(118.896484 0)"/>
     <use xlink:href="#DejaVuSans-20" transform="translate(195.898438 0)"/>
     <use xlink:href="#DejaVuSans-31" transform="translate(227.685547 0)"/>
    </g>
   </g>
   <g id="text_8">
    <!-- 5.1kΩ -->
    <g transform="translate(9.708211 122.090437) scale(0.14 -0.14)">
     <use xlink:href="#DejaVuSans-35"/>
     <use xlink:href="#DejaVuSans-2e" transform="translate(63.623047 0)"/>
     <use xlink:href="#DejaVuSans-31" transform="translate(95.410156 0)"/>
     <use xlink:href="#DejaVuSans-6b" transform="translate(159.033203 0)"/>
     <use xlink:href="#DejaVuSans-3a9" transform="translate(216.943359 0)"/>
    </g>
   </g>
   <g id="text_9">
    <!-- LED 0 -->
    <g transform="translate(110.2291 247.469508) scale(0.14 -0.14)">
     <defs>
      <path id="DejaVuSans-30" d="M 2034 4250 
Q 1547 4250 1301 3770 
Q 1056 3291 1056 2328 
Q 1056 1369 1301 889 
Q 1547 409 2034 409 
Q 2525 409 2770 889 
Q 3016 1369 3016 2328 
Q 3016 3291 2770 3770 
Q 2525 4250 2034 4250 
z
M 2034 4750 
Q 2819 4750 3233 4129 
Q 3647 3509 3647 2328 
Q 3647 1150 3233 529 
Q 2819 -91 2034 -91 
Q 1250 -91 836 529 
Q 422 1150 422 2328 
Q 422 3509 836 4129 
Q 1250 4750 2034 4750 
z
" transform="scale(0.015625)"/>
     </defs>
     <use xlink:href="#DejaVuSans-4c"/>
     <use xlink:href="#DejaVuSans-45" transform="translate(55.712891 0)"/>
     <use xlink:href="#DejaVuSans-44" transform="translate(118.896484 0)"/>
     <use xlink:href="#DejaVuSans-20" transform="translate(195.898438 0)"/>
     <use xlink:href="#DejaVuSans-30" transform="translate(227.685547 0)"/>
    </g>
   </g>
   <g id="text_10">
    <!-- 1.1kΩ -->
    <g transform="translate(511.224496 122.090437) scale(0.14 -0.14)">
     <use xlink:href="#DejaVuSans-31"/>
     <use xlink:href="#DejaVuSans-2e" transform="translate(63.623047 0)"/>
     <use xlink:href="#DejaVuSans-31" transform="translate(95.410156 0)"/>
     <use xlink:href="#DejaVuSans-6b" transform="translate(159.033203 0)"/>
     <use xlink:href="#DejaVuSans-3a9" transform="translate(216.943359 0)"/>
    </g>
   </g>
   <g id="text_11">
    <!-- LED 4 -->
    <g transform="translate(611.745384 247.469508) scale(0.14 -0.14)">
     <defs>
      <path id="DejaVuSans-34" d="M 2419 4116 
L 825 1625 
L 2419 1625 
L 2419 4116 
z
M 2253 4666 
L 3047 4666 
L 3047 1625 
L 3713 1625 
L 3713 1100 
L 3047 1100 
L 3047 0 
L 2419 0 
L 2419 1100 
L 313 1100 
L 313 1709 
L 2253 4666 
z
" transform="scale(0.015625)"/>
     </defs>
     <use xlink:href="#DejaVuSans-4c"/>
     <use xlink:href="#DejaVuSans-45" transform="translate(55.712891 0)"/>
     <use xlink:href="#DejaVuSans-44" transform="translate(118.896484 0)"/>
     <use xlink:href="#DejaVuSans-20" transform="translate(195.898438 0)"/>
     <use xlink:href="#DejaVuSans-34" transform="translate(227.685547 0)"/>
    </g>
   </g>
   <g id="text_12">
    <!-- 1.1kΩ -->
    <g transform="translate(636.603567 122.090437) scale(0.14 -0.14)">
     <use xlink:href="#DejaVuSans-31"/>
     <use xlink:href="#DejaVuSans-2e" transform="translate(63.623047 0)"/>
     <use xlink:href="#DejaVuSans-31" transform="translate(95.410156 0)"/>
     <use xlink:href="#DejaVuSans-6b" transform="translate(159.033203 0)"/>
     <use xlink:href="#DejaVuSans-3a9" transform="translate(216.943359 0)"/>
    </g>
   </g>
   <g id="text_13">
    <!-- LED 5 -->
    <g transform="translate(737.124456 247.469508) scale(0.14 -0.14)">
     <use xlink:href="#DejaVuSans-4c"/>
     <use xlink:href="#DejaVuSans-45" transform="translate(55.712891 0)"/>
     <use xlink:href="#DejaVuSans-44" transform="translate(118.896484 0)"/>
     <use xlink:href="#DejaVuSans-20" transform="translate(195.898438 0)"/>
     <use xlink:href="#DejaVuSans-35" transform="translate(227.685547 0)"/>
    </g>
   </g>
   <g id="text_14">
    <!-- 5.1kΩ -->
    <g transform="translate(761.982638 122.090437) scale(0.14 -0.14)">
     <use xlink:href="#DejaVuSans-35"/>
     <use xlink:href="#DejaVuSans-2e" transform="translate(63.623047 0)"/>
     <use xlink:href="#DejaVuSans-31" transform="translate(95.410156 0)"/>
     <use xlink:href="#DejaVuSans-6b" transform="translate(159.033203 0)"/>
     <use xlink:href="#DejaVuSans-3a9" transform="translate(216.943359 0)"/>
    </g>
   </g>
   <g id="text_15">
    <!-- LED 6 -->
    <g transform="translate(862.503527 247.469508) scale(0.14 -0.14)">
     <defs>
      <path id="DejaVuSans-36" d="M 2113 2584 
Q 1688 2584 1439 2293 
Q 1191 2003 1191 1497 
Q 1191 994 1439 701 
Q 1688 409 2113 409 
Q 2538 409 2786 701 
Q 3034 994 3034 1497 
Q 3034 2003 2786 2293 
Q 2538 2584 2113 2584 
z
M 3366 4563 
L 3366 3988 
Q 3128 4100 2886 4159 
Q 2644 4219 2406 4219 
Q 1781 4219 1451 3797 
Q 1122 3375 1075 2522 
Q 1259 2794 1537 2939 
Q 1816 3084 2150 3084 
Q 2853 3084 3261 2657 
Q 3669 2231 3669 1497 
Q 3669 778 3244 343 
Q 2819 -91 2113 -91 
Q 1303 -91 875 529 
Q 447 1150 447 2328 
Q 447 3434 972 4092 
Q 1497 4750 2381 4750 
Q 2619 4750 2861 4703 
Q 3103 4656 3366 4563 
z
" transform="scale(0.015625)"/>
     </defs>
     <use xlink:href="#DejaVuSans-4c"/>
     <use xlink:href="#DejaVuSans-45" transform="translate(55.712891 0)"/>
     <use xlink:href="#DejaVuSans-44" transform="translate(118.896484 0)"/>
     <use xlink:href="#DejaVuSans-20" transform="translate(195.898438 0)"/>
     <use xlink:href="#DejaVuSans-36" transform="translate(227.685547 0)"/>
    </g>
   </g>
   <g id="text_16">
    <!-- 5.1kΩ -->
    <g transform="translate(887.361709 122.090437) scale(0.14 -0.14)">
     <use xlink:href="#DejaVuSans-35"/>
     <use xlink:href="#DejaVuSans-2e" transform="translate(63.623047 0)"/>
     <use xlink:href="#DejaVuSans-31" transform="translate(95.410156 0)"/>
     <use xlink:href="#DejaVuSans-6b" transform="translate(159.033203 0)"/>
     <use xlink:href="#DejaVuSans-3a9" transform="translate(216.943359 0)"/>
    </g>
   </g>
   <g id="text_17">
    <!-- LED 7 -->
    <g transform="translate(987.882598 247.469508) scale(0.14 -0.14)">
     <defs>
      <path id="DejaVuSans-37" d="M 525 4666 
L 3525 4666 
L 3525 4397 
L 1831 0 
L 1172 0 
L 2766 4134 
L 525 4134 
L 525 4666 
z
" transform="scale(0.015625)"/>
     </defs>
     <use xlink:href="#DejaVuSans-4c"/>
     <use xlink:href="#DejaVuSans-45" transform="translate(55.712891 0)"/>
     <use xlink:href="#DejaVuSans-44" transform="translate(118.896484 0)"/>
     <use xlink:href="#DejaVuSans-20" transform="translate(195.898438 0)"/>
     <use xlink:href="#DejaVuSans-37" transform="translate(227.685547 0)"/>
    </g>
   </g>
   <g id="text_18">
    <!-- 100µF -->
    <g transform="translate(1010.128905 184.779972) scale(0.14 -0.14)">
     <defs>
      <path id="DejaVuSans-b5" d="M 544 -1331 
L 544 3500 
L 1119 3500 
L 1119 1325 
Q 1119 872 1334 640 
Q 1550 409 1972 409 
Q 2434 409 2667 671 
Q 2900 934 2900 1459 
L 2900 3500 
L 3475 3500 
L 3475 806 
Q 3475 619 3529 530 
Q 3584 441 3700 441 
Q 3728 441 3778 458 
Q 3828 475 3916 513 
L 3916 50 
Q 3788 -22 3673 -56 
Q 3559 -91 3450 -91 
Q 3234 -91 3106 31 
Q 2978 153 2931 403 
Q 2775 156 2548 32 
Q 2322 -91 2016 -91 
Q 1697 -91 1473 31 
Q 1250 153 1119 397 
L 1119 -1331 
L 544 -1331 
z
" transform="scale(0.015625)"/>
      <path id="DejaVuSans-46" d="M 628 4666 
L 3309 4666 
L 3309 4134 
L 1259 4134 
L 1259 2759 
L 3109 2759 
L 3109 2228 
L 1259 2228 
L 1259 0 
L 628 0 
L 628 4666 
z
" transform="scale(0.015625)"/>
     </defs>
     <use xlink:href="#DejaVuSans-31"/>
     <use xlink:href="#DejaVuSans-30" transform="translate(63.623047 0)"/>
     <use xlink:href="#DejaVuSans-30" transform="translate(127.246094 0)"/>
     <use xlink:href="#DejaVuSans-b5" transform="translate(190.869141 0)"/>
     <use xlink:href="#DejaVuSans-46" transform="translate(254.492188 0)"/>
    </g>
   </g>
   <g id="text_19">
    <!-- 1.1kΩ -->
    <g transform="translate(389.593716 338.769116) scale(0.14 -0.14)">
     <use xlink:href="#DejaVuSans-31"/>
     <use xlink:href="#DejaVuSans-2e" transform="translate(63.623047 0)"/>
     <use xlink:href="#DejaVuSans-31" transform="translate(95.410156 0)"/>
     <use xlink:href="#DejaVuSans-6b" transform="translate(159.033203 0)"/>
     <use xlink:href="#DejaVuSans-3a9" transform="translate(216.943359 0)"/>
    </g>
   </g>
   <g id="patch_27">
    <path d="M 504.232831 58.672253 
C 505.064104 58.672253 505.861442 58.341985 506.449241 57.754186 
C 507.03704 57.166387 507.367308 56.369049 507.367308 55.537776 
C 507.367308 54.706503 507.03704 53.909165 506.449241 53.321366 
C 505.861442 52.733568 505.064104 52.403299 504.232831 52.403299 
C 503.401558 52.403299 502.60422 52.733568 502.016421 53.321366 
C 501.428622 53.909165 501.098354 54.706503 501.098354 55.537776 
C 501.098354 56.369049 501.428622 57.166387 502.016421 57.754186 
C 502.60422 58.341985 503.401558 58.672253 504.232831 58.672253 
z
" clip-path="url(#pd20c009b49)" style="stroke: #000000; stroke-width: 2; stroke-linejoin: miter"/>
   </g>
   <g id="patch_28">
    <path d="M 441.543295 58.672253 
C 442.374568 58.672253 443.171906 58.341985 443.759705 57.754186 
C 444.347504 57.166387 444.677772 56.369049 444.677772 55.537776 
C 444.677772 54.706503 444.347504 53.909165 443.759705 53.321366 
C 443.171906 52.733568 442.374568 52.403299 441.543295 52.403299 
C 440.712022 52.403299 439.914684 52.733568 439.326886 53.321366 
C 438.739087 53.909165 438.408819 54.706503 438.408819 55.537776 
C 438.408819 56.369049 438.739087 57.166387 439.326886 57.754186 
C 439.914684 58.341985 440.712022 58.672253 441.543295 58.672253 
z
" clip-path="url(#pd20c009b49)" style="stroke: #000000; stroke-width: 2; stroke-linejoin: miter"/>
   </g>
   <g id="patch_29">
    <path d="M 441.543295 309.430395 
C 442.374568 309.430395 443.171906 309.100127 443.759705 308.512328 
C 444.347504 307.924529 444.677772 307.127191 444.677772 306.295918 
C 444.677772 305.464645 444.347504 304.667307 443.759705 304.079509 
C 443.171906 303.49171 442.374568 303.161442 441.543295 303.161442 
C 440.712022 303.161442 439.914684 303.49171 439.326886 304.079509 
C 438.739087 304.667307 438.408819 305.464645 438.408819 306.295918 
C 438.408819 307.127191 438.739087 307.924529 439.326886 308.512328 
C 439.914684 309.100127 440.712022 309.430395 441.543295 309.430395 
z
" clip-path="url(#pd20c009b49)" style="stroke: #000000; stroke-width: 2; stroke-linejoin: miter"/>
   </g>
   <g id="patch_30">
    <path d="M 316.164224 58.672253 
C 316.995497 58.672253 317.792835 58.341985 318.380634 57.754186 
C 318.968433 57.166387 319.298701 56.369049 319.298701 55.537776 
C 319.298701 54.706503 318.968433 53.909165 318.380634 53.321366 
C 317.792835 52.733568 316.995497 52.403299 316.164224 52.403299 
C 315.332951 52.403299 314.535613 52.733568 313.947815 53.321366 
C 313.360016 53.909165 313.029748 54.706503 313.029748 55.537776 
C 313.029748 56.369049 313.360016 57.166387 313.947815 57.754186 
C 314.535613 58.341985 315.332951 58.672253 316.164224 58.672253 
z
" clip-path="url(#pd20c009b49)" style="stroke: #000000; stroke-width: 2; stroke-linejoin: miter"/>
   </g>
   <g id="patch_31">
    <path d="M 316.164224 309.430395 
C 316.995497 309.430395 317.792835 309.100127 318.380634 308.512328 
C 318.968433 307.924529 319.298701 307.127191 319.298701 306.295918 
C 319.298701 305.464645 318.968433 304.667307 318.380634 304.079509 
C 317.792835 303.49171 316.995497 303.161442 316.164224 303.161442 
C 315.332951 303.161442 314.535613 303.49171 313.947815 304.079509 
C 313.360016 304.667307 313.029748 305.464645 313.029748 306.295918 
C 313.029748 307.127191 313.360016 307.924529 313.947815 308.512328 
C 314.535613 309.100127 315.332951 309.430395 316.164224 309.430395 
z
" clip-path="url(#pd20c009b49)" style="stroke: #000000; stroke-width: 2; stroke-linejoin: miter"/>
   </g>
   <g id="patch_32">
    <path d="M 190.785153 58.672253 
C 191.616426 58.672253 192.413764 58.341985 193.001563 57.754186 
C 193.589362 57.166387 193.91963 56.369049 193.91963 55.537776 
C 193.91963 54.706503 193.589362 53.909165 193.001563 53.321366 
C 192.413764 52.733568 191.616426 52.403299 190.785153 52.403299 
C 189.95388 52.403299 189.156542 52.733568 188.568743 53.321366 
C 187.980945 53.909165 187.650676 54.706503 187.650676 55.537776 
C 187.650676 56.369049 187.980945 57.166387 188.568743 57.754186 
C 189.156542 58.341985 189.95388 58.672253 190.785153 58.672253 
z
" clip-path="url(#pd20c009b49)" style="stroke: #000000; stroke-width: 2; stroke-linejoin: miter"/>
   </g>
   <g id="patch_33">
    <path d="M 190.785153 309.430395 
C 191.616426 309.430395 192.413764 309.100127 193.001563 308.512328 
C 193.589362 307.924529 193.91963 307.127191 193.91963 306.295918 
C 193.91963 305.464645 193.589362 304.667307 193.001563 304.079509 
C 192.413764 303.49171 191.616426 303.161442 190.785153 303.161442 
C 189.95388 303.161442 189.156542 303.49171 188.568743 304.079509 
C 187.980945 304.667307 187.650676 305.464645 187.650676 306.295918 
C 187.650676 307.127191 187.980945 307.924529 188.568743 308.512328 
C 189.156542 309.100127 189.95388 309.430395 190.785153 309.430395 
z
" clip-path="url(#pd20c009b49)" style="stroke: #000000; stroke-width: 2; stroke-linejoin: miter"/>
   </g>
   <g id="patch_34">
    <path d="M 566.922367 58.672253 
C 567.75364 58.672253 568.550978 58.341985 569.138776 57.754186 
C 569.726575 57.166387 570.056843 56.369049 570.056843 55.537776 
C 570.056843 54.706503 569.726575 53.909165 569.138776 53.321366 
C 568.550978 52.733568 567.75364 52.403299 566.922367 52.403299 
C 566.091094 52.403299 565.293756 52.733568 564.705957 53.321366 
C 564.118158 53.909165 563.78789 54.706503 563.78789 55.537776 
C 563.78789 56.369049 564.118158 57.166387 564.705957 57.754186 
C 565.293756 58.341985 566.091094 58.672253 566.922367 58.672253 
z
" clip-path="url(#pd20c009b49)" style="stroke: #000000; stroke-width: 2; stroke-linejoin: miter"/>
   </g>
   <g id="patch_35">
    <path d="M 566.922367 309.430395 
C 567.75364 309.430395 568.550978 309.100127 569.138776 308.512328 
C 569.726575 307.924529 570.056843 307.127191 570.056843 306.295918 
C 570.056843 305.464645 569.726575 304.667307 569.138776 304.079509 
C 568.550978 303.49171 567.75364 303.161442 566.922367 303.161442 
C 566.091094 303.161442 565.293756 303.49171 564.705957 304.079509 
C 564.118158 304.667307 563.78789 305.464645 563.78789 306.295918 
C 563.78789 307.127191 564.118158 307.924529 564.705957 308.512328 
C 565.293756 309.100127 566.091094 309.430395 566.922367 309.430395 
z
" clip-path="url(#pd20c009b49)" style="stroke: #000000; stroke-width: 2; stroke-linejoin: miter"/>
   </g>
   <g id="patch_36">
    <path d="M 692.301438 58.672253 
C 693.132711 58.672253 693.930049 58.341985 694.517847 57.754186 
C 695.105646 57.166387 695.435914 56.369049 695.435914 55.537776 
C 695.435914 54.706503 695.105646 53.909165 694.517847 53.321366 
C 693.930049 52.733568 693.132711 52.403299 692.301438 52.403299 
C 691.470165 52.403299 690.672827 52.733568 690.085028 53.321366 
C 689.497229 53.909165 689.166961 54.706503 689.166961 55.537776 
C 689.166961 56.369049 689.497229 57.166387 690.085028 57.754186 
C 690.672827 58.341985 691.470165 58.672253 692.301438 58.672253 
z
" clip-path="url(#pd20c009b49)" style="stroke: #000000; stroke-width: 2; stroke-linejoin: miter"/>
   </g>
   <g id="patch_37">
    <path d="M 692.301438 309.430395 
C 693.132711 309.430395 693.930049 309.100127 694.517847 308.512328 
C 695.105646 307.924529 695.435914 307.127191 695.435914 306.295918 
C 695.435914 305.464645 695.105646 304.667307 694.517847 304.079509 
C 693.930049 303.49171 693.132711 303.161442 692.301438 303.161442 
C 691.470165 303.161442 690.672827 303.49171 690.085028 304.079509 
C 689.497229 304.667307 689.166961 305.464645 689.166961 306.295918 
C 689.166961 307.127191 689.497229 307.924529 690.085028 308.512328 
C 690.672827 309.100127 691.470165 309.430395 692.301438 309.430395 
z
" clip-path="url(#pd20c009b49)" style="stroke: #000000; stroke-width: 2; stroke-linejoin: miter"/>
   </g>
   <g id="patch_38">
    <path d="M 817.680509 58.672253 
C 818.511782 58.672253 819.30912 58.341985 819.896919 57.754186 
C 820.484717 57.166387 820.814986 56.369049 820.814986 55.537776 
C 820.814986 54.706503 820.484717 53.909165 819.896919 53.321366 
C 819.30912 52.733568 818.511782 52.403299 817.680509 52.403299 
C 816.849236 52.403299 816.051898 52.733568 815.464099 53.321366 
C 814.8763 53.909165 814.546032 54.706503 814.546032 55.537776 
C 814.546032 56.369049 814.8763 57.166387 815.464099 57.754186 
C 816.051898 58.341985 816.849236 58.672253 817.680509 58.672253 
z
" clip-path="url(#pd20c009b49)" style="stroke: #000000; stroke-width: 2; stroke-linejoin: miter"/>
   </g>
   <g id="patch_39">
    <path d="M 817.680509 309.430395 
C 818.511782 309.430395 819.30912 309.100127 819.896919 308.512328 
C 820.484717 307.924529 820.814986 307.127191 820.814986 306.295918 
C 820.814986 305.464645 820.484717 304.667307 819.896919 304.079509 
C 819.30912 303.49171 818.511782 303.161442 817.680509 303.161442 
C 816.849236 303.161442 816.051898 303.49171 815.464099 304.079509 
C 814.8763 304.667307 814.546032 305.464645 814.546032 306.295918 
C 814.546032 307.127191 814.8763 307.924529 815.464099 308.512328 
C 816.051898 309.100127 816.849236 309.430395 817.680509 309.430395 
z
" clip-path="url(#pd20c009b49)" style="stroke: #000000; stroke-width: 2; stroke-linejoin: miter"/>
   </g>
   <g id="patch_40">
    <path d="M 943.05958 58.672253 
C 943.890853 58.672253 944.688191 58.341985 945.27599 57.754186 
C 945.863788 57.166387 946.194057 56.369049 946.194057 55.537776 
C 946.194057 54.706503 945.863788 53.909165 945.27599 53.321366 
C 944.688191 52.733568 943.890853 52.403299 943.05958 52.403299 
C 942.228307 52.403299 941.430969 52.733568 940.84317 53.321366 
C 940.255371 53.909165 939.925103 54.706503 939.925103 55.537776 
C 939.925103 56.369049 940.255371 57.166387 940.84317 57.754186 
C 941.430969 58.341985 942.228307 58.672253 943.05958 58.672253 
z
" clip-path="url(#pd20c009b49)" style="stroke: #000000; stroke-width: 2; stroke-linejoin: miter"/>
   </g>
   <g id="patch_41">
    <path d="M 943.05958 309.430395 
C 943.890853 309.430395 944.688191 309.100127 945.27599 308.512328 
C 945.863788 307.924529 946.194057 307.127191 946.194057 306.295918 
C 946.194057 305.464645 945.863788 304.667307 945.27599 304.079509 
C 944.688191 303.49171 943.890853 303.161442 943.05958 303.161442 
C 942.228307 303.161442 941.430969 303.49171 940.84317 304.079509 
C 940.255371 304.667307 939.925103 305.464645 939.925103 306.295918 
C 939.925103 307.127191 940.255371 307.924529 940.84317 308.512328 
C 941.430969 309.100127 942.228307 309.430395 943.05958 309.430395 
z
" clip-path="url(#pd20c009b49)" style="stroke: #000000; stroke-width: 2; stroke-linejoin: miter"/>
   </g>
   <g id="patch_42">
    <path d="M 504.232831 309.430395 
C 505.064104 309.430395 505.861442 309.100127 506.449241 308.512328 
C 507.03704 307.924529 507.367308 307.127191 507.367308 306.295918 
C 507.367308 305.464645 507.03704 304.667307 506.449241 304.079509 
C 505.861442 303.49171 505.064104 303.161442 504.232831 303.161442 
C 503.401558 303.161442 502.60422 303.49171 502.016421 304.079509 
C 501.428622 304.667307 501.098354 305.464645 501.098354 306.295918 
C 501.098354 307.127191 501.428622 307.924529 502.016421 308.512328 
C 502.60422 309.100127 503.401558 309.430395 504.232831 309.430395 
z
" clip-path="url(#pd20c009b49)" style="stroke: #000000; stroke-width: 2; stroke-linejoin: miter"/>
   </g>
   <g id="patch_43">
    <path d="M 347.439337 359.442713 
C 348.27061 359.442713 349.067948 359.112445 349.655747 358.524646 
C 350.243546 357.936848 350.573814 357.13951 350.573814 356.308237 
C 350.573814 355.476964 350.243546 354.679626 349.655747 354.091827 
C 349.067948 353.504028 348.27061 353.17376 347.439337 353.17376 
C 346.608064 353.17376 345.810726 353.504028 345.222927 354.091827 
C 344.635129 354.679626 344.30486 355.476964 344.30486 356.308237 
C 344.30486 357.13951 344.635129 357.936848 345.222927 358.524646 
C 345.810726 359.112445 346.608064 359.442713 347.439337 359.442713 
z
" clip-path="url(#pd20c009b49)" style="fill: #ffffff; stroke: #000000; stroke-width: 2; stroke-linejoin: miter"/>
   </g>
   <g id="text_20">
    <!-- GPIO -->
    <g transform="translate(305.685558 360.171362) scale(0.14 -0.14)">
     <defs>
      <path id="DejaVuSans-47" d="M 3809 666 
L 3809 1919 
L 2778 1919 
L 2778 2438 
L 4434 2438 
L 4434 434 
Q 4069 175 3628 42 
Q 3188 -91 2688 -91 
Q 1594 -91 976 548 
Q 359 1188 359 2328 
Q 359 3472 976 4111 
Q 1594 4750 2688 4750 
Q 3144 4750 3555 4637 
Q 3966 4525 4313 4306 
L 4313 3634 
Q 3963 3931 3569 4081 
Q 3175 4231 2741 4231 
Q 1884 4231 1454 3753 
Q 1025 3275 1025 2328 
Q 1025 1384 1454 906 
Q 1884 428 2741 428 
Q 3075 428 3337 486 
Q 3600 544 3809 666 
z
" transform="scale(0.015625)"/>
      <path id="DejaVuSans-50" d="M 1259 4147 
L 1259 2394 
L 2053 2394 
Q 2494 2394 2734 2622 
Q 2975 2850 2975 3272 
Q 2975 3691 2734 3919 
Q 2494 4147 2053 4147 
L 1259 4147 
z
M 628 4666 
L 2053 4666 
Q 2838 4666 3239 4311 
Q 3641 3956 3641 3272 
Q 3641 2581 3239 2228 
Q 2838 1875 2053 1875 
L 1259 1875 
L 1259 0 
L 628 0 
L 628 4666 
z
" transform="scale(0.015625)"/>
      <path id="DejaVuSans-49" d="M 628 4666 
L 1259 4666 
L 1259 0 
L 628 0 
L 628 4666 
z
" transform="scale(0.015625)"/>
      <path id="DejaVuSans-4f" d="M 2522 4238 
Q 1834 4238 1429 3725 
Q 1025 3213 1025 2328 
Q 1025 1447 1429 934 
Q 1834 422 2522 422 
Q 3209 422 3611 934 
Q 4013 1447 4013 2328 
Q 4013 3213 3611 3725 
Q 3209 4238 2522 4238 
z
M 2522 4750 
Q 3503 4750 4090 4092 
Q 4678 3434 4678 2328 
Q 4678 1225 4090 567 
Q 3503 -91 2522 -91 
Q 1538 -91 948 565 
Q 359 1222 359 2328 
Q 359 3434 948 4092 
Q 1538 4750 2522 4750 
z
" transform="scale(0.015625)"/>
     </defs>
     <use xlink:href="#DejaVuSans-47"/>
     <use xlink:href="#DejaVuSans-50" transform="translate(77.490234 0)"/>
     <use xlink:href="#DejaVuSans-49" transform="translate(137.792969 0)"/>
     <use xlink:href="#DejaVuSans-4f" transform="translate(167.285156 0)"/>
    </g>
   </g>
  </g>
 </g>
 <defs>
  <clipPath id="pd20c009b49">
   <rect x="0" y="12.955329" width="1084.32" height="404.649343"/>
  </clipPath>
 </defs>
</svg>
